<?xml version="1.0" standalone="no"?>
<!DOCTYPE svg PUBLIC "-//W3C//DTD SVG 20010904//EN"
 "http://www.w3.org/TR/2001/REC-SVG-20010904/DTD/svg10.dtd">
<svg version="1.0" xmlns="http://www.w3.org/2000/svg"
 width="512.000000pt" height="512.000000pt" viewBox="0 0 512.000000 512.000000"
 preserveAspectRatio="xMidYMid meet">
<metadata>
Created by potrace 1.14, written by Peter Selinger 2001-2017
</metadata>
<g transform="translate(0.000000,512.000000) scale(0.100000,-0.100000)"
fill="#000000" stroke="none">
<path d="M2410 5114 c-271 -24 -438 -57 -660 -130 -1264 -420 -1992 -1747
-1670 -3044 155 -625 543 -1169 1085 -1523 845 -551 1943 -551 2790 0 508 331
891 848 1060 1429 69 236 99 455 99 714 0 415 -81 760 -264 1136 -372 759
-1113 1288 -1960 1398 -117 15 -399 27 -480 20z m-156 -890 c9 -8 16 -22 16
-29 0 -7 -7 -21 -16 -29 -13 -13 -42 -16 -159 -16 -117 0 -146 3 -159 16 -9 8
-16 22 -16 29 0 7 7 21 16 29 23 23 295 23 318 0z m520 0 c9 -8 16 -22 16 -29
0 -7 -7 -21 -16 -29 -13 -14 -48 -16 -224 -16 -176 0 -211 2 -224 16 -9 8 -16
22 -16 29 0 7 7 21 16 29 13 14 48 16 224 16 176 0 211 -2 224 -16z m520 0 c9
-8 16 -22 16 -29 0 -7 -7 -21 -16 -29 -13 -14 -48 -16 -224 -16 -176 0 -211 2
-224 16 -9 8 -16 22 -16 29 0 7 7 21 16 29 13 14 48 16 224 16 176 0 211 -2
224 -16z m-1170 -130 c9 -8 16 -22 16 -29 0 -7 -7 -21 -16 -29 -13 -14 -48
-16 -224 -16 -176 0 -211 2 -224 16 -9 8 -16 22 -16 29 0 7 7 21 16 29 13 14
48 16 224 16 176 0 211 -2 224 -16z m910 0 c9 -8 16 -22 16 -29 0 -7 -7 -21
-16 -29 -13 -14 -65 -16 -419 -16 -354 0 -406 2 -419 16 -9 8 -16 22 -16 29 0
7 7 21 16 29 13 14 65 16 419 16 354 0 406 -2 419 -16z m520 0 c9 -8 16 -22
16 -29 0 -7 -7 -21 -16 -29 -13 -14 -48 -16 -224 -16 -176 0 -211 2 -224 16
-9 8 -16 22 -16 29 0 7 7 21 16 29 13 14 48 16 224 16 176 0 211 -2 224 -16z
m-1170 -130 c9 -8 16 -22 16 -29 0 -7 -7 -21 -16 -29 -14 -14 -71 -16 -484
-16 -413 0 -470 2 -484 16 -9 8 -16 22 -16 29 0 7 7 21 16 29 14 14 71 16 484
16 413 0 470 -2 484 -16z m1300 0 c20 -20 20 -38 0 -58 -14 -14 -83 -16 -614
-16 -531 0 -600 2 -614 16 -9 8 -16 22 -16 29 0 7 7 21 16 29 14 14 83 16 614
16 531 0 600 -2 614 -16z m-1040 -130 c20 -20 20 -38 0 -58 -14 -14 -89 -16
-679 -16 -590 0 -665 2 -679 16 -9 8 -16 22 -16 29 0 7 7 21 16 29 14 14 89
16 679 16 590 0 665 -2 679 -16z m1170 0 c9 -8 16 -22 16 -29 0 -7 -7 -21 -16
-29 -14 -14 -77 -16 -549 -16 -472 0 -535 2 -549 16 -9 8 -16 22 -16 29 0 7 7
21 16 29 14 14 77 16 549 16 472 0 535 -2 549 -16z m130 -130 c20 -20 20 -38
0 -58 -14 -14 -154 -16 -1394 -16 -1240 0 -1380 2 -1394 16 -9 8 -16 22 -16
29 0 7 7 21 16 29 14 14 154 16 1394 16 1240 0 1380 -2 1394 -16z m-2080 -130
c9 -8 16 -22 16 -29 0 -7 -7 -21 -16 -29 -13 -14 -65 -16 -419 -16 -354 0
-406 2 -419 16 -9 8 -16 22 -16 29 0 7 7 21 16 29 13 14 65 16 419 16 354 0
406 -2 419 -16z m130 0 c12 -11 16 -36 16 -94 0 -80 -12 -110 -45 -110 -33 0
-45 30 -45 110 0 80 12 110 45 110 7 0 21 -7 29 -16z m780 0 c9 -8 16 -22 16
-29 0 -7 -7 -21 -16 -29 -13 -14 -60 -16 -354 -16 -294 0 -341 2 -354 16 -9 8
-16 22 -16 29 0 7 7 21 16 29 13 14 60 16 354 16 294 0 341 -2 354 -16z m1300
0 c20 -20 20 -38 0 -58 -14 -14 -83 -16 -614 -16 -531 0 -600 2 -614 16 -9 8
-16 22 -16 29 0 7 7 21 16 29 14 14 83 16 614 16 531 0 600 -2 614 -16z
m-2210 -130 c9 -8 16 -22 16 -29 0 -7 -7 -21 -16 -29 -13 -14 -65 -16 -419
-16 -354 0 -406 2 -419 16 -9 8 -16 22 -16 29 0 7 7 21 16 29 13 14 65 16 419
16 354 0 406 -2 419 -16z m2210 0 c20 -20 20 -38 0 -58 -14 -14 -119 -16
-1004 -16 -885 0 -990 2 -1004 16 -9 8 -16 22 -16 29 0 7 7 21 16 29 14 14
119 16 1004 16 885 0 990 -2 1004 -16z m-2340 -130 c9 -8 16 -22 16 -29 0 -7
-7 -21 -16 -29 -13 -14 -65 -16 -419 -16 -354 0 -406 2 -419 16 -9 8 -16 22
-16 29 0 7 7 21 16 29 13 14 65 16 419 16 354 0 406 -2 419 -16z m390 0 c9 -8
16 -22 16 -29 0 -7 -7 -21 -16 -29 -13 -13 -42 -16 -159 -16 -117 0 -146 3
-159 16 -9 8 -16 22 -16 29 0 7 7 21 16 29 23 23 295 23 318 0z m1170 0 c9 -8
16 -22 16 -29 0 -7 -7 -21 -16 -29 -14 -14 -77 -16 -549 -16 -472 0 -535 2
-549 16 -9 8 -16 22 -16 29 0 7 7 21 16 29 14 14 77 16 549 16 472 0 535 -2
549 -16z m910 0 c9 -8 16 -22 16 -29 0 -7 -7 -21 -16 -29 -13 -14 -65 -16
-419 -16 -354 0 -406 2 -419 16 -9 8 -16 22 -16 29 0 7 7 21 16 29 13 14 65
16 419 16 354 0 406 -2 419 -16z m-2600 -130 c9 -8 16 -22 16 -29 0 -7 -7 -21
-16 -29 -13 -14 -60 -16 -354 -16 -294 0 -341 2 -354 16 -9 8 -16 22 -16 29 0
7 7 21 16 29 13 14 60 16 354 16 294 0 341 -2 354 -16z m1820 0 c9 -8 16 -22
16 -29 0 -7 -7 -21 -16 -29 -14 -14 -77 -16 -549 -16 -472 0 -535 2 -549 16
-9 8 -16 22 -16 29 0 7 7 21 16 29 14 14 77 16 549 16 472 0 535 -2 549 -16z
m780 0 c9 -8 16 -22 16 -29 0 -7 -7 -21 -16 -29 -13 -14 -60 -16 -354 -16
-294 0 -341 2 -354 16 -9 8 -16 22 -16 29 0 7 7 21 16 29 13 14 60 16 354 16
294 0 341 -2 354 -16z m-2860 -130 c9 -8 16 -22 16 -29 0 -7 -7 -21 -16 -29
-13 -14 -53 -16 -284 -16 -231 0 -271 2 -284 16 -9 8 -16 22 -16 29 0 7 7 21
16 29 13 14 53 16 284 16 231 0 271 -2 284 -16z m2210 0 c20 -20 20 -38 0 -58
-14 -14 -89 -16 -679 -16 -590 0 -665 2 -679 16 -9 8 -16 22 -16 29 0 7 7 21
16 29 14 14 89 16 679 16 590 0 665 -2 679 -16z m780 0 c9 -8 16 -22 16 -29 0
-7 -7 -21 -16 -29 -13 -14 -60 -16 -354 -16 -294 0 -341 2 -354 16 -9 8 -16
22 -16 29 0 7 7 21 16 29 13 14 60 16 354 16 294 0 341 -2 354 -16z m-780
-130 c9 -8 16 -22 16 -29 0 -7 -7 -21 -16 -29 -14 -14 -71 -16 -484 -16 -413
0 -470 2 -484 16 -9 8 -16 22 -16 29 0 7 7 21 16 29 14 14 71 16 484 16 413 0
470 -2 484 -16z m780 0 c9 -8 16 -22 16 -29 0 -7 -7 -21 -16 -29 -13 -14 -60
-16 -354 -16 -294 0 -341 2 -354 16 -9 8 -16 22 -16 29 0 7 7 21 16 29 13 14
60 16 354 16 294 0 341 -2 354 -16z m-650 -520 c20 -20 20 -38 0 -58 -14 -14
-83 -16 -614 -16 -531 0 -600 2 -614 16 -9 8 -16 22 -16 29 0 7 7 21 16 29 14
14 83 16 614 16 531 0 600 -2 614 -16z m260 -130 c20 -20 20 -38 0 -58 -14
-14 -89 -16 -679 -16 -590 0 -665 2 -679 16 -9 8 -16 22 -16 29 0 7 7 21 16
29 14 14 89 16 679 16 590 0 665 -2 679 -16z m-2340 -130 c9 -8 16 -22 16 -29
0 -7 -7 -21 -16 -29 -23 -23 -295 -23 -318 0 -9 8 -16 22 -16 29 0 7 7 21 16
29 23 23 295 23 318 0z m650 0 c9 -8 16 -22 16 -29 0 -7 -7 -21 -16 -29 -23
-24 -555 -24 -578 0 -9 8 -16 22 -16 29 0 7 7 21 16 29 23 24 555 24 578 0z
m-910 -130 c9 -8 16 -22 16 -29 0 -7 -7 -21 -16 -29 -13 -14 -48 -16 -224 -16
-176 0 -211 2 -224 16 -9 8 -16 22 -16 29 0 7 7 21 16 29 13 14 48 16 224 16
176 0 211 -2 224 -16z m1300 0 c9 -8 16 -22 16 -29 0 -7 -7 -21 -16 -29 -13
-14 -48 -16 -224 -16 -176 0 -211 2 -224 16 -20 20 -20 38 0 58 13 14 48 16
224 16 176 0 211 -2 224 -16z m910 0 c9 -8 16 -22 16 -29 0 -7 -7 -21 -16 -29
-13 -14 -65 -16 -419 -16 -354 0 -406 2 -419 16 -9 8 -16 22 -16 29 0 7 7 21
16 29 13 14 65 16 419 16 354 0 406 -2 419 -16z m-1950 -130 c9 -8 16 -22 16
-29 0 -7 -7 -21 -16 -29 -13 -14 -60 -16 -354 -16 -294 0 -341 2 -354 16 -9 8
-16 22 -16 29 0 7 7 21 16 29 13 14 60 16 354 16 294 0 341 -2 354 -16z m390
0 c9 -8 16 -22 16 -29 0 -7 -7 -21 -16 -29 -23 -23 -295 -23 -318 0 -9 8 -16
22 -16 29 0 7 7 21 16 29 23 23 295 23 318 0z m520 0 c9 -8 16 -22 16 -29 0
-7 -7 -21 -16 -29 -13 -14 -48 -16 -224 -16 -176 0 -211 2 -224 16 -20 20 -20
38 0 58 13 14 48 16 224 16 176 0 211 -2 224 -16z m-780 -130 c9 -8 16 -22 16
-29 0 -7 -7 -21 -16 -29 -13 -14 -60 -16 -354 -16 -294 0 -341 2 -354 16 -9 8
-16 22 -16 29 0 7 7 21 16 29 13 14 60 16 354 16 294 0 341 -2 354 -16z m130
0 c9 -8 16 -22 16 -29 0 -7 -7 -21 -16 -29 -8 -9 -22 -16 -29 -16 -7 0 -21 7
-29 16 -9 8 -16 22 -16 29 0 7 7 21 16 29 8 9 22 16 29 16 7 0 21 -7 29 -16z
m910 0 c9 -8 16 -22 16 -29 0 -7 -7 -21 -16 -29 -13 -14 -65 -16 -419 -16
-354 0 -406 2 -419 16 -20 20 -20 38 0 58 13 14 65 16 419 16 354 0 406 -2
419 -16z"/>
</g>
</svg>
