<?xml version="1.0" standalone="no"?>
<!DOCTYPE svg PUBLIC "-//W3C//DTD SVG 20010904//EN"
 "http://www.w3.org/TR/2001/REC-SVG-20010904/DTD/svg10.dtd">
<svg version="1.0" xmlns="http://www.w3.org/2000/svg"
 width="4000.000000pt" height="4000.000000pt" viewBox="0 0 4000.000000 4000.000000"
 preserveAspectRatio="xMidYMid meet">
<metadata>
Created by potrace 1.14, written by Peter Selinger 2001-2017
</metadata>
<g transform="translate(0.000000,4000.000000) scale(0.100000,-0.100000)"
fill="#000000" stroke="none">
<path d="M9971 37343 c-11 -10 -2260 -3894 -4996 -8631 l-4975 -8612 0 -100 0
-100 4975 -8613 c2736 -4736 4985 -8620 4996 -8629 20 -17 512 -18 10029 -18
9517 0 10009 1 10029 18 11 9 2260 3893 4996 8630 l4975 8612 0 100 0 100
-4975 8612 c-2737 4737 -4985 8621 -4996 8631 -20 16 -512 17 -10029 17 -9517
0 -10009 -1 -10029 -17z m20376 -733 c205 -355 373 -650 373 -657 0 -6 4 -13
8 -15 12 -4 1272 -2187 1272 -2203 0 -7 4 -15 10 -17 8 -3 1256 -2154 1268
-2188 3 -8 8 -17 12 -20 10 -8 1265 -2182 1269 -2199 2 -9 7 -18 11 -21 12 -7
1262 -2171 1268 -2195 3 -11 11 -24 18 -30 12 -10 1237 -2127 1257 -2174 6
-14 15 -28 18 -31 12 -9 1269 -2190 1269 -2202 0 -6 6 -16 14 -22 13 -11 1251
-2150 1263 -2184 4 -9 10 -19 13 -22 4 -3 62 -101 129 -217 l123 -213 -123
-212 c-67 -117 -125 -215 -129 -218 -3 -3 -9 -13 -13 -23 -13 -34 -1250 -2172
-1263 -2183 -8 -6 -14 -16 -14 -22 0 -12 -1258 -2194 -1269 -2202 -4 -3 -11
-14 -15 -25 -8 -23 -1257 -2188 -1266 -2195 -4 -3 -9 -12 -12 -20 -10 -26
-1259 -2185 -1268 -2190 -4 -3 -9 -12 -11 -21 -6 -22 -1261 -2193 -1271 -2197
-4 -2 -8 -8 -8 -14 0 -13 -1248 -2175 -1266 -2193 -8 -7 -14 -18 -14 -23 0
-14 -1261 -2196 -1272 -2200 -4 -2 -8 -9 -8 -15 0 -7 -168 -302 -373 -657
l-373 -645 -9974 0 -9974 0 -532 920 c-293 506 -533 926 -533 934 -1 8 -7 19
-15 25 -13 11 -1250 2149 -1263 2183 -4 10 -10 20 -13 23 -12 8 -1270 2191
-1270 2202 0 6 -6 16 -13 22 -17 14 -1267 2179 -1267 2194 0 6 -4 12 -8 14
-12 4 -1272 2188 -1272 2204 0 7 -4 14 -9 16 -9 3 -1257 2155 -1269 2188 -3 8
-8 17 -12 20 -8 7 -1248 2155 -1263 2188 -6 15 -15 29 -18 32 -15 11 -1203
2076 -1203 2090 0 15 1189 2080 1203 2090 4 3 11 14 15 25 9 24 1257 2188
1266 2195 4 3 9 12 12 20 12 33 1260 2185 1269 2188 5 2 9 9 9 17 0 15 1260
2199 1272 2203 4 2 8 8 8 14 0 15 1250 2181 1267 2194 7 6 13 16 13 22 0 11
1258 2194 1270 2202 3 3 9 13 13 23 13 34 1250 2172 1263 2183 8 6 14 16 14
23 0 9 999 1747 1056 1839 l14 22 9972 -2 9972 -3 373 -645z"/>
<path d="M10551 36343 c-11 -10 -82 -124 -156 -253 -75 -129 -140 -236 -146
-238 -5 -2 -9 -10 -9 -17 0 -13 -1257 -2194 -1270 -2205 -4 -3 -9 -12 -12 -20
-8 -22 -1259 -2184 -1267 -2190 -3 -3 -12 -17 -18 -32 -23 -51 -1246 -2163
-1259 -2174 -8 -6 -14 -16 -14 -23 0 -11 -1257 -2191 -1269 -2201 -4 -3 -11
-16 -18 -30 -18 -42 -1253 -2174 -1262 -2180 -5 -3 -10 -12 -12 -21 -5 -22
-1261 -2193 -1271 -2197 -4 -2 -8 -8 -8 -14 0 -11 -1259 -2190 -1269 -2198 -4
-3 -11 -14 -15 -25 -4 -11 -43 -81 -87 -157 -53 -91 -79 -147 -79 -168 0 -21
26 -77 79 -168 44 -76 83 -146 87 -157 4 -11 11 -22 15 -25 10 -8 1269 -2187
1269 -2199 0 -5 4 -11 8 -13 10 -4 1266 -2175 1271 -2197 2 -9 7 -18 12 -21 8
-6 1244 -2138 1262 -2180 7 -14 14 -27 18 -30 12 -10 1269 -2190 1269 -2202 0
-6 6 -16 14 -22 13 -11 1237 -2123 1259 -2174 6 -15 15 -29 18 -32 8 -6 1259
-2168 1267 -2190 3 -8 8 -17 12 -20 13 -11 1270 -2192 1270 -2205 0 -7 4 -15
9 -17 6 -1 71 -109 146 -238 74 -129 145 -243 156 -252 20 -17 485 -18 9455
-18 l9433 0 24 32 c14 18 296 503 627 1078 332 575 609 1050 617 1056 7 6 13
16 13 22 0 11 1259 2193 1270 2202 4 3 9 12 12 21 8 22 1258 2183 1267 2189 3
3 12 18 19 33 23 52 1244 2162 1258 2173 8 6 14 16 14 23 0 11 1257 2191 1269
2201 4 3 11 16 17 30 24 53 1255 2175 1264 2178 6 2 10 10 10 17 0 15 1260
2198 1272 2203 4 2 8 8 8 14 0 6 110 201 245 434 175 303 245 432 245 454 0
22 -70 151 -245 454 -135 233 -245 428 -245 434 0 6 -4 12 -8 14 -12 5 -1272
2188 -1272 2203 0 7 -4 15 -10 17 -9 3 -1240 2125 -1264 2178 -6 14 -13 27
-17 30 -12 10 -1269 2190 -1269 2201 0 7 -6 17 -14 23 -15 12 -1259 2161
-1265 2185 -2 9 -7 18 -11 21 -9 5 -1258 2164 -1268 2189 -3 9 -8 18 -12 21
-12 9 -1270 2191 -1270 2202 0 6 -6 16 -13 22 -8 6 -285 481 -617 1056 -331
575 -614 1060 -627 1078 l-24 32 -9433 0 c-8970 0 -9435 -1 -9455 -17z m5595
-1438 c393 -229 721 -418 729 -421 9 -4 302 161 739 415 398 232 726 421 730
421 3 0 6 -659 6 -1465 l0 -1465 -245 0 -245 0 0 1035 c0 569 -2 1035 -4 1035
-2 0 -221 -126 -486 -281 -265 -154 -487 -278 -493 -276 -7 3 -225 129 -486
281 -261 152 -475 276 -477 276 -2 0 -4 -466 -4 -1035 l0 -1035 -245 0 -245 0
0 1465 c0 806 3 1465 6 1465 3 0 327 -187 720 -415z m4186 -75 c294 -28 530
-141 744 -354 213 -214 326 -450 354 -744 5 -59 10 -385 10 -724 l0 -618 -250
0 -250 0 0 240 0 240 -490 0 -490 0 0 250 0 250 490 0 490 0 0 148 c-1 233
-30 350 -121 487 -57 84 -161 184 -243 234 -218 130 -512 130 -734 -1 -131
-77 -274 -252 -321 -393 -37 -113 -41 -196 -41 -836 l0 -619 -245 0 -245 0 0
686 c0 650 1 691 20 785 51 248 152 432 339 619 208 207 449 323 731 350 113
11 136 11 252 0z m3090 0 c294 -28 530 -141 744 -354 215 -215 326 -450 354
-749 36 -374 -86 -712 -350 -978 -187 -187 -371 -288 -619 -339 -94 -19 -135
-20 -785 -20 l-686 0 0 1225 0 1225 618 0 c339 0 665 -5 724 -10z m3336 -3563
c67 -116 122 -217 122 -224 0 -6 4 -13 9 -15 12 -4 1271 -2183 1271 -2199 0
-6 6 -17 14 -23 13 -11 1237 -2125 1260 -2176 6 -14 13 -27 17 -30 12 -9 1269
-2190 1269 -2202 0 -6 6 -16 14 -22 13 -11 1251 -2150 1263 -2184 4 -9 10 -19
13 -22 5 -4 338 -576 397 -683 2 -4 -341 -6 -762 -5 l-767 3 -79 135 c-43 74
-79 140 -79 147 0 6 -4 13 -8 15 -11 4 -1272 2185 -1272 2199 0 7 -6 17 -14
23 -18 15 -1266 2175 -1266 2191 0 8 -4 15 -9 17 -10 3 -1242 2127 -1265 2178
-6 14 -14 27 -17 30 -8 6 -1258 2167 -1266 2189 -4 9 -10 18 -13 21 -4 3 -62
102 -130 220 -68 118 -132 223 -143 233 -18 16 -148 17 -2430 17 l-2411 0 -23
-22 -23 -21 0 -2834 0 -2833 -430 0 -430 0 0 2832 0 2832 -22 23 -21 23 -2412
0 c-1913 0 -2415 -3 -2428 -12 -9 -7 -146 -236 -303 -508 -157 -272 -289 -497
-292 -500 -4 -3 -14 -21 -23 -40 -32 -67 -1250 -2165 -1259 -2168 -6 -2 -10
-10 -10 -17 0 -17 -1248 -2176 -1266 -2191 -8 -6 -14 -16 -14 -23 0 -11 -1257
-2190 -1269 -2201 -3 -3 -14 -21 -23 -40 -9 -19 -262 -458 -561 -975 l-545
-940 -767 -3 -767 -2 33 57 c17 32 38 63 45 69 8 6 14 16 14 23 0 12 1257
2193 1269 2201 4 3 11 14 15 25 8 23 1257 2188 1266 2195 4 3 9 12 12 20 10
26 1259 2184 1267 2190 5 3 10 12 12 21 6 22 1261 2193 1271 2197 4 2 8 8 8
14 0 6 127 231 282 499 l283 489 6635 0 6636 0 122 -213z m-6308 -6337 c162
-15 160 -14 160 -54 0 -33 2 -34 53 -46 67 -16 68 -17 57 -44 -7 -19 -4 -28
13 -44 33 -30 57 -39 120 -47 37 -4 100 -25 168 -56 95 -43 117 -49 176 -49
65 -1 71 -3 126 -45 33 -24 72 -47 89 -50 25 -6 28 -10 24 -33 -5 -26 0 -30
133 -92 137 -64 139 -66 146 -102 6 -33 10 -38 33 -38 25 0 32 -10 81 -120 30
-66 51 -124 47 -127 -4 -4 -20 1 -35 10 -22 13 -53 17 -133 17 -56 0 -151 5
-210 12 -138 15 -151 9 -212 -86 -25 -41 -46 -81 -46 -91 0 -9 23 -98 50 -198
28 -99 50 -200 50 -224 0 -24 -11 -68 -25 -100 -18 -40 -24 -66 -19 -86 4 -19
46 -70 114 -141 107 -110 109 -112 149 -108 35 4 44 9 63 43 22 40 32 47 43
29 4 -6 -5 -24 -19 -41 -44 -51 -36 -88 37 -182 86 -112 83 -103 39 -126 -46
-24 -62 -55 -62 -125 0 -40 -5 -57 -19 -70 -29 -26 -45 -15 -46 31 -1 59 -26
90 -86 107 -28 9 -69 29 -92 46 -22 16 -47 30 -54 30 -7 0 -13 6 -13 14 0 21
-58 76 -81 76 -15 0 -19 7 -19 38 0 29 -7 45 -28 65 -15 15 -35 27 -43 27 -7
0 -25 14 -39 31 -25 30 -27 30 -68 20 -51 -14 -65 -35 -82 -125 -11 -60 -11
-71 2 -80 8 -6 19 -25 25 -42 11 -30 10 -32 -28 -48 -41 -19 -74 -66 -66 -95
2 -10 -2 -26 -9 -36 -8 -11 -14 -44 -14 -77 0 -153 106 -206 208 -105 40 41
45 50 58 128 8 46 17 85 19 87 2 3 12 2 21 -2 12 -5 14 -12 8 -34 -4 -15 -7
-42 -7 -61 1 -19 -3 -43 -8 -53 -7 -13 -3 -27 14 -55 18 -29 22 -42 14 -54
-16 -25 27 -89 59 -89 31 0 94 26 94 38 0 11 72 42 95 42 13 0 12 -6 -4 -39
-19 -36 -24 -39 -75 -45 -49 -7 -58 -11 -76 -42 -19 -29 -20 -39 -10 -68 13
-42 41 -61 100 -71 58 -10 107 -43 153 -105 29 -39 37 -58 37 -93 l0 -43 -167
-18 c-185 -20 -224 -34 -263 -99 -26 -42 -25 -59 5 -95 14 -17 25 -38 25 -49
0 -10 7 -29 16 -42 14 -19 15 -39 10 -117 l-7 -94 50 -84 c62 -102 81 -116
159 -116 54 0 61 -3 78 -27 22 -34 20 -125 -3 -164 -9 -15 -34 -38 -55 -50
-74 -45 -87 -60 -103 -111 -17 -60 -19 -133 -5 -208 9 -50 8 -56 -17 -96 -16
-23 -62 -67 -105 -98 -66 -49 -84 -69 -136 -154 -49 -79 -61 -108 -67 -157 -6
-51 -13 -67 -45 -101 -28 -31 -44 -62 -60 -115 -12 -41 -30 -102 -40 -137 -21
-73 -20 -81 40 -210 l43 -92 -5 -109 c-5 -96 -8 -113 -32 -147 -33 -49 -34
-98 -2 -144 13 -20 26 -59 30 -90 14 -105 16 -108 154 -209 126 -93 129 -96
156 -162 15 -37 37 -76 49 -86 12 -11 62 -37 111 -57 52 -21 116 -57 155 -88
70 -55 117 -76 193 -85 43 -5 55 -1 145 49 l98 55 118 7 c65 3 127 11 137 16
10 6 78 51 150 101 113 78 146 96 228 121 l96 30 56 -60 c30 -33 65 -64 78
-67 15 -4 56 4 108 21 l85 27 21 -20 20 -21 -22 -123 c-13 -68 -26 -126 -29
-129 -3 -3 -7 -22 -8 -43 -2 -28 8 -60 37 -117 32 -64 47 -83 86 -106 46 -29
47 -30 80 -142 31 -108 32 -114 17 -150 -14 -33 -14 -41 2 -84 l17 -47 -61
-108 c-33 -59 -79 -148 -103 -198 -40 -86 -42 -95 -46 -200 -3 -81 1 -127 13
-175 l17 -64 -41 -81 c-35 -70 -41 -90 -43 -155 -1 -41 1 -91 5 -110 7 -29 4
-41 -17 -70 -14 -19 -33 -50 -42 -69 -15 -33 -15 -34 18 -62 18 -15 38 -28 45
-29 6 0 79 48 162 108 226 162 427 359 615 602 188 243 380 538 411 631 13 38
77 162 143 276 90 158 132 244 174 358 55 147 57 153 67 304 10 138 21 197
102 545 138 594 147 654 159 1006 9 285 9 297 -11 358 l-21 62 -45 0 -46 0 7
38 c16 96 27 418 16 501 -7 56 -8 109 -2 151 11 73 -4 153 -39 223 -12 23 -33
88 -45 145 -21 91 -29 109 -69 158 -25 31 -53 69 -62 85 -10 16 -23 29 -30 29
-9 0 -7 9 8 29 19 26 21 39 17 96 -3 36 -4 65 -2 63 2 -2 32 -78 67 -168 305
-778 408 -1584 308 -2405 -58 -474 -149 -838 -314 -1255 -70 -176 -251 -550
-267 -550 -5 0 -10 -8 -10 -18 0 -20 -146 -263 -235 -392 -420 -605 -938
-1089 -1563 -1462 -781 -465 -1714 -708 -2627 -685 -518 13 -1053 109 -1518
271 -193 67 -463 179 -446 184 30 9 49 36 49 68 0 35 -21 61 -72 92 -18 11
-28 25 -28 40 0 24 0 25 78 18 l78 -7 17 35 c14 31 21 36 52 36 22 0 72 18
134 50 79 39 109 61 148 105 62 72 68 91 49 154 l-15 50 94 31 c80 27 102 30
152 25 76 -9 219 18 251 48 12 12 22 32 22 48 0 24 5 29 34 35 68 12 73 27 85
239 6 105 11 198 11 208 0 9 7 17 15 17 38 0 99 47 195 147 56 59 113 127 127
151 24 41 25 46 13 105 -12 63 -64 170 -97 199 -10 8 -43 21 -73 27 -30 7 -88
32 -130 56 -177 104 -415 185 -540 185 -43 0 -50 3 -50 19 0 11 -10 31 -22 45
-33 36 -237 146 -273 147 -23 0 -37 10 -60 42 -25 34 -41 45 -83 57 -40 11
-51 18 -46 30 20 46 14 70 -50 198 -59 119 -74 139 -148 211 l-83 80 -117 32
c-102 28 -123 37 -167 76 -35 31 -54 57 -63 86 -9 30 -37 67 -99 132 -54 56
-106 123 -139 180 -29 49 -59 95 -68 101 -9 6 -59 15 -111 19 l-96 7 -101 75
c-81 60 -108 87 -135 134 -24 42 -41 60 -60 64 -20 5 -26 11 -22 24 3 13 -7
27 -31 46 -30 23 -43 27 -73 22 -20 -4 -40 -13 -45 -20 -6 -12 -26 -13 -96 -9
l-88 5 -27 -32 c-15 -18 -27 -43 -27 -56 0 -71 -26 -71 -75 1 -39 57 -77 84
-117 84 -35 1 -93 87 -113 170 -17 68 -17 68 8 116 14 27 35 84 47 128 21 76
21 81 6 145 -26 103 -32 113 -111 169 -41 30 -75 57 -75 60 0 3 36 93 81 200
93 224 94 236 14 284 -38 23 -49 25 -79 17 -28 -8 -42 -22 -68 -64 -48 -80
-69 -76 -100 16 l-24 72 37 190 c34 176 41 199 95 312 l59 123 58 28 c54 26
60 27 85 13 15 -8 38 -36 52 -62 24 -46 26 -47 72 -47 38 0 48 4 53 20 4 14
15 20 34 20 25 0 30 -5 41 -46 7 -26 23 -58 35 -73 23 -27 42 -131 25 -131 -5
0 -18 -10 -30 -22 -18 -19 -20 -35 -20 -136 0 -115 6 -138 43 -179 23 -26 74
-31 99 -10 8 6 31 50 50 97 27 66 39 115 53 220 28 211 49 234 280 310 88 29
169 61 181 71 11 11 31 52 44 93 20 66 31 83 109 165 l86 92 105 15 c130 18
158 31 190 91 22 41 33 50 85 70 91 35 97 36 94 21 -7 -36 13 -75 46 -91 32
-15 38 -15 90 3 31 11 103 26 161 34 91 13 109 19 145 47 42 33 59 63 59 105
0 20 -9 29 -42 44 -37 17 -45 17 -59 4 -25 -23 -43 -16 -66 26 -25 43 -30 80
-10 80 7 0 21 15 30 33 17 32 17 37 2 73 -9 21 -21 42 -28 47 -27 20 110 -6
182 -33 42 -17 87 -30 101 -30 22 0 19 -5 -33 -58 -53 -54 -56 -59 -50 -94 7
-44 12 -49 78 -72 103 -37 163 -68 175 -91 14 -27 70 -41 98 -26 41 22 52 56
52 154 0 80 -3 96 -20 113 -72 70 -70 67 -55 84 7 8 33 53 56 99 51 103 50
114 -26 267 -54 108 -56 114 -40 137 9 14 22 74 30 143 21 167 21 165 -23 191
l-38 21 -59 -44 c-32 -24 -63 -44 -68 -44 -12 0 -4 33 24 97 21 49 22 56 10
105 -21 82 -37 102 -112 138 -94 46 -122 38 -167 -48 -29 -54 -42 -67 -101
-101 -68 -40 -88 -66 -89 -116 -1 -45 -32 -93 -76 -119 -38 -22 -56 -26 -106
-24 -48 2 -60 5 -60 19 0 9 -6 22 -14 28 -9 7 -16 46 -21 109 -4 53 -12 106
-17 116 -8 14 -4 32 17 77 22 45 41 67 90 103 61 44 111 65 252 101 l62 15 34
-36 c25 -28 43 -38 68 -39 19 -1 47 -8 62 -15 25 -12 33 -12 63 5 34 18 34 19
34 87 l0 68 68 -2 c65 -3 69 -1 127 39 33 24 73 58 88 78 15 19 37 35 47 35
18 0 20 -7 20 -59 l0 -59 -80 -51 c-73 -46 -82 -49 -110 -40 -45 16 -93 4
-119 -31 -19 -27 -20 -35 -11 -70 8 -29 17 -41 35 -46 22 -6 24 -9 18 -50 -5
-39 -2 -50 30 -98 20 -29 49 -63 64 -74 l29 -21 41 23 c22 13 51 26 65 29 41
11 77 46 89 88 13 43 17 45 44 26 16 -12 29 -10 96 17 64 25 80 37 93 63 14
30 14 37 -9 104 l-25 73 20 21 c12 13 26 51 35 96 13 69 12 82 -5 162 -11 48
-22 92 -25 97 -4 6 -2 10 4 10 5 0 13 -4 16 -10 3 -5 21 -10 40 -10 37 0 95
41 95 67 0 10 5 13 18 8 9 -4 31 -9 48 -12 19 -3 40 -17 53 -34 19 -26 27 -29
78 -29 l56 0 -7 -66 c-5 -46 -15 -78 -34 -107 -15 -23 -30 -43 -34 -45 -11 -5
-10 -72 0 -72 9 0 32 -59 32 -83 0 -13 -9 -17 -33 -17 -69 0 -146 -131 -187
-316 l-21 -99 38 -95 c36 -91 40 -96 84 -117 25 -12 53 -33 62 -47 21 -31 75
-43 116 -26 19 8 51 44 95 108 36 54 79 106 96 117 17 11 44 41 59 66 l29 46
51 -5 c50 -4 52 -3 93 40 53 55 131 118 147 118 7 0 43 7 81 16 55 12 86 27
144 70 48 35 73 60 70 68 -3 8 7 22 26 32 29 18 30 22 24 59 -3 22 -12 51 -19
64 -10 20 -9 30 13 68 26 48 27 100 2 208 -16 68 -15 79 15 141 l27 54 -23 36
c-21 34 -23 36 -65 29 -53 -8 -82 6 -96 46 -8 24 -15 29 -44 29 -18 0 -65 5
-104 12 -59 10 -83 9 -158 -5 -113 -22 -120 -21 -124 4 -2 16 -19 27 -67 45
-58 22 -79 24 -230 24 -132 0 -171 -3 -187 -15 -26 -20 -44 -19 -70 6 l-23 21
-66 -22 c-50 -17 -69 -28 -75 -46 -11 -27 -28 -30 -54 -11 -17 13 -16 14 13
27 43 17 45 24 26 74 l-17 44 -85 -23 c-46 -13 -95 -31 -108 -39 -33 -22 -44
-20 -77 11 l-27 26 -112 -47 c-61 -26 -113 -46 -114 -44 -2 2 -5 16 -7 32 -3
27 3 31 212 139 118 62 220 115 227 120 9 6 9 17 -2 47 l-14 40 37 9 c217 57
513 101 912 135 83 7 604 -3 720 -14z m745 -165 c272 -66 646 -201 923 -331
168 -79 277 -139 440 -242 210 -133 404 -270 487 -344 22 -20 135 -119 252
-220 168 -146 250 -226 396 -390 182 -204 216 -248 419 -548 94 -140 106 -162
121 -233 9 -42 33 -109 52 -147 19 -38 35 -76 35 -85 0 -8 4 -15 9 -15 17 0
101 -177 100 -212 0 -18 2 -51 5 -73 5 -31 2 -45 -13 -65 l-20 -25 -43 40
c-88 83 -83 80 -127 61 l-38 -18 -6 -79 c-8 -94 -1 -112 56 -156 23 -18 58
-46 77 -63 19 -17 48 -34 64 -38 22 -6 33 -18 46 -52 16 -40 21 -45 47 -42 64
6 73 11 73 42 0 57 16 30 34 -57 10 -49 30 -110 44 -138 24 -46 27 -62 31
-210 11 -393 -6 -685 -33 -554 -9 47 -98 188 -174 276 -37 43 -82 110 -101
149 -21 44 -44 77 -61 87 -15 9 -56 47 -92 85 -36 38 -96 90 -134 115 -38 25
-89 59 -113 76 -24 17 -57 31 -73 31 -35 0 -68 -32 -68 -66 0 -36 51 -106 109
-148 37 -27 70 -69 132 -167 65 -101 92 -135 123 -152 37 -21 41 -29 81 -142
40 -115 44 -121 88 -150 39 -26 47 -37 57 -80 18 -73 22 -78 109 -139 56 -39
81 -64 86 -83 19 -79 95 -135 134 -99 10 9 21 16 26 16 4 0 5 -93 2 -207 -8
-251 -24 -349 -156 -918 -79 -341 -92 -410 -102 -545 -11 -148 -14 -161 -61
-285 -52 -136 -95 -225 -110 -225 -4 0 -8 -6 -8 -14 0 -8 -40 -84 -90 -170
-49 -86 -97 -182 -107 -214 -25 -80 -221 -381 -399 -612 -115 -150 -178 -220
-298 -333 -133 -127 -266 -237 -285 -237 -13 0 -29 97 -24 145 3 30 21 82 46
132 l41 81 -13 59 c-8 32 -16 105 -18 163 -5 105 -4 105 35 190 21 47 69 138
105 204 70 124 77 152 53 210 -11 27 -11 36 0 57 7 13 13 32 14 41 0 31 -80
291 -95 308 -9 10 -33 25 -54 34 -28 13 -44 30 -62 68 l-25 51 28 146 c37 195
37 200 -14 260 -56 64 -82 70 -174 37 -39 -14 -78 -26 -85 -26 -8 0 -34 25
-59 55 -66 79 -78 81 -218 38 -108 -33 -128 -44 -261 -135 l-144 -99 -116 -5
-116 -6 -99 -55 c-97 -53 -99 -54 -147 -44 -34 8 -70 27 -116 63 -40 32 -105
69 -161 93 l-94 40 -31 73 c-30 72 -31 73 -158 167 l-128 95 -7 61 c-4 34 -18
82 -31 107 l-24 45 26 39 c24 36 27 50 32 176 l5 137 -46 98 c-25 54 -46 105
-46 114 0 8 14 63 31 122 26 89 37 112 70 147 35 35 41 49 50 110 16 107 81
208 181 279 55 41 87 73 119 121 l42 65 -11 77 c-7 42 -12 93 -12 113 0 43 18
99 32 99 6 0 32 16 60 36 56 41 98 114 98 169 0 33 12 46 24 26 12 -18 67 -21
99 -4 18 9 56 17 86 19 51 2 57 5 101 53 26 28 54 51 63 51 9 0 28 16 43 36
42 54 154 108 227 109 49 1 61 5 83 28 17 19 35 27 58 27 22 0 51 12 85 35 60
42 71 43 71 10 0 -13 14 -40 30 -58 22 -26 30 -45 30 -73 1 -49 13 -65 75 -96
60 -30 137 -48 209 -48 45 0 54 -3 65 -24 20 -36 51 -45 132 -40 49 3 90 0
119 -9 43 -14 46 -13 77 11 31 23 33 29 33 83 0 34 -7 73 -17 94 -23 48 -9 92
27 87 36 -5 203 -3 292 4 85 6 106 20 117 75 3 18 13 35 21 39 8 4 32 16 54
26 56 28 69 52 70 142 1 77 1 78 -84 258 -80 171 -87 183 -119 192 -55 17
-111 -21 -111 -76 0 -15 -9 -21 -42 -26 -44 -7 -88 -39 -88 -63 0 -21 -39 -15
-87 12 -30 18 -43 33 -43 48 0 26 -26 60 -56 76 -13 6 -24 24 -28 46 -10 52
-53 72 -120 55 -58 -15 -72 -27 -82 -66 -4 -16 -10 -33 -14 -39 -4 -5 -10 -26
-14 -45 -5 -30 -1 -40 25 -68 17 -18 29 -35 26 -38 -3 -3 -31 9 -62 27 -46 26
-67 47 -108 110 -57 85 -59 87 -187 117 -112 26 -160 48 -160 70 0 20 -48 52
-78 52 -12 0 -24 5 -27 10 -3 6 -26 10 -50 10 -42 0 -46 -2 -65 -40 -29 -58
-20 -98 33 -138 22 -18 46 -32 52 -32 6 0 22 -11 35 -25 24 -26 250 -155 271
-155 7 0 10 -3 6 -6 -3 -3 -31 3 -62 15 -31 12 -67 21 -80 21 -13 0 -75 28
-137 62 -96 52 -122 62 -176 66 -76 5 -113 -8 -144 -54 -22 -32 -25 -34 -66
-28 -57 8 -92 -8 -119 -56 -26 -45 -29 -78 -9 -106 13 -17 12 -22 -12 -47 -27
-28 -35 -83 -18 -119 6 -13 4 -18 -6 -18 -7 0 -28 -13 -46 -29 -36 -34 -42
-73 -17 -121 14 -26 13 -33 -16 -97 -35 -77 -38 -80 -94 -88 -22 -4 -61 -20
-86 -36 -54 -34 -54 -34 -86 -9 -19 15 -41 20 -87 20 l-62 0 -36 63 -37 62 6
97 c5 80 3 101 -11 122 -9 14 -16 37 -16 52 0 15 -7 35 -15 44 -27 30 2 39
190 60 225 26 225 25 225 148 l0 85 -52 70 c-34 46 -73 83 -111 108 l-58 38
34 6 c26 5 37 13 41 30 3 13 15 26 25 30 33 10 93 92 98 135 4 27 18 52 44 81
37 40 39 46 39 105 0 63 0 63 39 85 22 12 45 35 52 51 10 24 17 28 50 28 28 0
41 5 49 20 8 15 21 20 52 20 35 0 46 6 80 42 21 23 38 46 38 51 0 6 20 7 48 3
44 -6 50 -4 76 23 41 43 33 95 -23 156 -23 25 -41 52 -41 60 0 9 14 37 31 61
l31 45 -43 51 c-42 50 -42 51 -22 67 48 39 57 104 20 147 -20 22 -31 26 -81
28 -57 1 -58 1 -98 -46 -22 -27 -45 -48 -51 -48 -20 0 -100 74 -128 119 -20
31 -29 58 -29 88 0 34 -6 49 -27 71 -66 66 -113 73 -165 24 -37 -34 -37 -84
-3 -135 19 -27 29 -60 37 -122 10 -80 14 -90 59 -150 27 -35 49 -69 49 -75 0
-5 4 -10 8 -10 5 0 30 -27 55 -60 30 -38 63 -68 93 -83 l47 -24 -33 -23 -32
-23 -21 22 c-12 11 -65 54 -117 94 -86 67 -99 73 -131 69 -30 -3 -41 -11 -55
-38 -10 -19 -23 -34 -29 -34 -10 0 -44 34 -120 117 l-29 33 24 57 c34 81 29
136 -30 343 l-49 175 31 48 c31 48 32 49 72 43 23 -3 110 -8 194 -12 84 -4
155 -10 157 -14 3 -5 -9 -13 -26 -19 -28 -10 -30 -13 -27 -57 3 -52 -2 -48
109 -94 67 -28 84 -31 131 -25 63 8 67 10 90 47 16 24 16 31 2 77 -11 39 -23
57 -49 74 -29 19 -35 30 -44 79 -5 32 -29 97 -51 145 -46 97 -65 154 -75 225
l-7 47 -67 6 c-46 4 -89 16 -140 41 -65 31 -73 38 -69 59 4 20 -3 27 -55 54
-33 17 -65 31 -72 31 -7 0 -41 21 -76 46 -60 45 -67 47 -148 54 -73 5 -102 13
-189 53 -56 26 -111 47 -122 47 -12 0 -20 7 -20 16 0 25 77 14 305 -41z
m-2882 -193 c-60 -30 -81 -69 -64 -115 9 -23 4 -33 -39 -90 l-50 -64 18 -41
c16 -38 20 -42 57 -44 81 -4 88 -1 145 61 47 52 90 81 118 81 4 0 8 -15 9 -33
1 -31 -3 -35 -109 -97 -83 -48 -114 -72 -123 -94 -18 -43 -1 -84 41 -102 l34
-14 -36 -55 -36 -54 28 -36 c28 -37 33 -38 91 -19 13 4 11 0 -7 -16 -22 -19
-33 -20 -98 -15 -63 5 -76 3 -102 -15 -15 -11 -50 -24 -77 -29 -81 -16 -294
-70 -363 -93 -42 -14 -92 -42 -144 -81 -71 -54 -82 -67 -113 -135 -29 -61 -34
-82 -28 -111 17 -87 24 -140 24 -189 1 -29 6 -62 12 -73 9 -17 4 -27 -29 -63
-54 -59 -58 -69 -66 -167 l-6 -85 43 -21 43 -21 65 53 c52 43 69 65 91 117
l27 63 58 5 c54 5 139 46 178 85 12 11 51 106 60 146 5 18 25 36 71 62 52 31
69 47 89 87 14 28 28 50 31 50 3 0 18 -7 34 -15 47 -24 55 -73 24 -143 -35
-79 -31 -166 8 -195 25 -19 31 -19 83 -7 31 7 58 17 61 22 3 4 10 8 15 8 18 0
-2 -133 -22 -153 -18 -17 -24 -41 -20 -77 1 -8 24 -60 51 -115 69 -141 71
-148 57 -184 -11 -30 -13 -31 -75 -31 -47 0 -75 -6 -111 -25 l-49 -24 -78 30
c-61 24 -101 32 -174 36 -92 5 -96 5 -127 -21 -17 -14 -34 -26 -38 -26 -4 0
-52 -14 -106 -30 l-98 -31 -11 -40 c-10 -35 -9 -44 5 -59 31 -35 70 -34 156 0
44 18 82 30 85 27 3 -2 -1 -21 -10 -40 -8 -19 -12 -38 -9 -41 3 -3 1 -12 -5
-19 -8 -9 -9 -24 -3 -44 l9 -31 -51 -7 c-80 -10 -163 -32 -271 -72 -91 -34
-101 -40 -127 -81 -16 -25 -30 -48 -31 -53 -2 -5 -50 -15 -108 -24 -58 -8
-116 -20 -130 -26 -14 -6 -67 -57 -118 -113 -80 -88 -96 -111 -119 -177 l-27
-76 -166 -54 c-176 -57 -180 -60 -262 -162 -21 -27 -38 -60 -38 -73 0 -13 -4
-24 -10 -24 -5 0 -10 9 -10 20 0 10 -13 34 -28 52 -16 18 -36 54 -45 79 -10
26 -26 54 -36 63 -24 22 -127 39 -152 25 -16 -8 -29 -1 -78 41 -38 33 -66 50
-84 50 -15 0 -68 -20 -118 -45 l-90 -46 -69 -145 c-67 -141 -70 -152 -109
-350 l-40 -204 31 -97 c34 -110 49 -126 126 -142 67 -13 94 -2 127 56 14 23
30 43 36 43 6 0 8 -3 6 -7 -3 -5 -39 -91 -82 -192 -59 -141 -75 -190 -70 -212
5 -21 28 -44 91 -89 73 -53 85 -66 94 -103 6 -23 13 -48 16 -56 2 -8 0 -28 -5
-45 -6 -17 -15 -50 -21 -73 -6 -24 -15 -43 -20 -43 -6 0 -10 4 -10 9 0 5 -40
94 -89 198 -80 167 -93 202 -117 318 -34 163 -36 171 -76 195 -32 19 -33 22
-70 202 l-37 183 24 149 c35 212 110 491 235 871 112 342 186 529 269 675 27
47 120 188 208 313 154 219 166 233 311 367 83 77 154 140 157 140 4 0 18 14
32 31 14 16 150 132 302 257 245 202 312 251 601 439 313 203 589 359 725 410
80 29 92 28 28 -5z m-608 -191 c-6 -4 -127 -84 -270 -177 -215 -139 -305 -205
-520 -382 -143 -118 -334 -282 -425 -366 -221 -202 -232 -210 -113 -81 350
379 762 702 1218 954 107 60 129 70 110 52z m1705 -41 c-31 -12 -59 -16 -90
-13 -49 6 -75 -5 -162 -65 -26 -17 -49 -32 -51 -32 -3 0 2 18 11 41 9 25 30
50 51 65 33 22 45 24 161 23 l125 0 -45 -19z m-770 -3 c0 -18 28 -42 65 -55
42 -15 3 -15 -45 -1 -31 9 -39 17 -42 40 -3 20 0 29 9 29 7 0 13 -6 13 -13z
m1289 -48 c40 -8 51 -15 61 -40 7 -16 20 -29 30 -29 24 0 90 -28 90 -39 0 -4
-7 -30 -15 -56 -10 -35 -11 -53 -3 -62 6 -7 8 -27 4 -46 -5 -26 -2 -38 14 -52
29 -26 25 -85 -6 -85 -7 0 -22 -17 -33 -37 -16 -34 -17 -40 -4 -59 13 -20 12
-22 -16 -32 -17 -6 -37 -24 -46 -41 -14 -28 -14 -34 1 -63 16 -30 15 -32 -7
-49 -12 -9 -59 -24 -103 -33 -86 -17 -116 -34 -207 -115 -52 -46 -58 -49 -97
-44 -52 7 -84 -12 -112 -67 -11 -21 -38 -54 -60 -71 -23 -18 -66 -70 -97 -116
-30 -46 -59 -83 -63 -83 -4 0 -13 7 -21 16 -7 8 -29 24 -50 34 -30 16 -41 30
-62 84 l-25 64 19 79 c16 70 54 170 70 183 3 3 8 13 12 23 4 12 17 17 41 17
28 0 41 7 65 37 41 50 46 80 21 142 l-20 53 28 51 c39 69 59 204 37 246 -8 16
-28 34 -44 41 -25 10 -28 15 -19 30 8 13 28 19 69 22 38 3 65 11 79 23 14 12
73 29 188 51 190 36 212 38 281 23z m-1145 -256 c3 -10 11 -47 19 -83 14 -73
5 -170 -17 -170 -7 0 -21 -15 -31 -33 -18 -33 -17 -35 8 -110 23 -68 24 -76 9
-82 -9 -3 -18 -1 -20 5 -10 28 -49 60 -78 62 -45 3 -81 -29 -88 -78 -6 -45
-25 -94 -37 -94 -4 0 -10 12 -13 26 -5 18 -12 24 -24 20 -70 -21 -72 -21 -70
18 1 20 6 36 12 36 22 0 220 130 233 152 7 14 12 61 13 120 0 95 0 96 -31 122
-17 14 -41 26 -54 26 -52 0 -31 20 52 48 105 36 110 37 117 15z m3174 -205
c28 -28 3 -37 -42 -17 -14 7 -23 16 -20 20 8 13 48 11 62 -3z m-176 -407 c2
-5 31 -32 66 -61 55 -46 70 -54 120 -59 52 -5 57 -8 60 -32 2 -18 13 -31 37
-42 33 -16 34 -17 20 -44 -8 -15 -15 -37 -15 -48 0 -40 31 -120 57 -147 l27
-28 -33 0 c-32 0 -66 -26 -101 -76 -10 -14 -30 -23 -60 -26 l-45 -5 54 53 c30
30 58 54 63 54 5 0 16 16 24 36 25 60 -8 122 -81 154 -31 13 -60 43 -128 132
-79 104 -102 148 -78 148 5 0 11 -4 13 -9z m-5600 -278 c-304 -432 -339 -488
-436 -716 -78 -183 -256 -728 -324 -992 -28 -104 -62 -262 -76 -350 l-27 -159
42 -211 c42 -209 59 -255 95 -255 20 0 25 -14 54 -154 25 -116 38 -152 114
-310 l86 -179 0 -93 0 -94 94 -189 c85 -170 98 -190 127 -200 26 -9 37 -8 55
4 13 8 25 15 28 15 3 0 15 -21 26 -47 23 -51 23 -69 -1 -264 l-11 -87 -50 -23
c-76 -36 -81 -53 -57 -194 l20 -117 -26 -87 c-14 -47 -25 -96 -25 -108 0 -26
381 -840 407 -868 10 -11 114 -113 231 -226 l212 -205 66 -240 66 -239 120
-235 c66 -129 141 -273 166 -319 25 -46 39 -81 31 -76 -8 5 -72 52 -144 105
-357 266 -634 533 -919 888 -247 308 -460 650 -605 969 -83 182 -161 381 -161
409 0 13 -4 24 -9 24 -8 0 -61 158 -110 325 -71 242 -135 581 -167 875 -23
206 -26 749 -6 940 17 164 47 370 73 500 47 243 188 730 210 730 5 0 9 11 9
24 0 57 195 484 335 732 95 168 285 452 405 607 51 64 94 117 97 117 2 0 -4
-12 -15 -27z m1364 -205 c-14 -32 -36 -50 -36 -28 0 15 30 60 41 60 4 0 2 -14
-5 -32z m3606 -128 c5 -32 -2 -36 -33 -20 -28 16 -25 50 5 50 19 0 25 -6 28
-30z m231 -209 c23 -16 56 -32 74 -36 28 -6 32 -10 35 -48 3 -23 8 -49 12 -58
6 -13 -1 -17 -41 -22 -26 -4 -59 -9 -74 -12 -20 -5 -27 -2 -37 19 -6 14 -18
26 -27 26 -20 0 -19 33 1 72 9 17 14 44 12 59 -3 16 -3 29 0 29 2 0 22 -13 45
-29z m-303 11 c0 -35 -25 -130 -37 -144 -43 -48 -55 -2 -26 94 15 48 22 58 41
58 12 0 22 -4 22 -8z m-2682 -339 c32 -35 42 -54 42 -81 0 -23 -4 -32 -12 -29
-39 16 -164 72 -167 74 -7 5 72 83 84 83 6 0 30 -21 53 -47z m-548 -123 c13
-8 13 -10 -2 -10 -9 0 -20 5 -23 10 -8 13 5 13 25 0z m35 -60 c18 -20 17 -20
-13 -20 -34 0 -35 1 -26 24 8 21 17 20 39 -4z m4827 -99 c41 -9 61 -19 72 -37
19 -27 13 -29 -35 -12 -34 11 -138 74 -109 65 9 -3 41 -10 72 -16z m446 -36
c7 -14 23 -30 37 -37 14 -6 25 -17 25 -25 0 -37 32 -72 98 -106 56 -30 81 -37
125 -37 50 0 58 3 84 33 25 29 34 33 66 29 30 -3 41 1 62 24 14 15 27 25 30
23 17 -18 115 -247 115 -270 0 -48 -17 -71 -50 -67 -24 2 -34 -4 -58 -38 -16
-22 -33 -50 -36 -62 -8 -23 -16 -25 -175 -26 -58 -1 -66 2 -97 31 -33 31 -36
31 -71 19 -33 -11 -43 -23 -76 -91 -42 -84 -45 -124 -16 -192 7 -18 11 -34 9
-36 -3 -2 -45 -1 -94 1 -74 3 -89 7 -93 22 -6 23 -60 38 -159 43 -55 3 -94 12
-121 25 -35 18 -41 26 -46 63 -3 25 -15 52 -31 68 -18 19 -26 38 -26 62 0 60
-45 86 -141 80 -9 -1 -36 -16 -60 -35 -28 -21 -61 -36 -91 -40 -26 -4 -58 -16
-71 -27 -15 -11 -41 -19 -64 -19 -62 0 -255 -100 -268 -139 -3 -9 -20 -23 -39
-29 -20 -7 -45 -29 -62 -53 -27 -40 -30 -41 -72 -35 -30 4 -53 1 -74 -10 -22
-11 -33 -13 -41 -5 -17 17 6 33 75 50 35 9 72 23 83 31 25 18 105 191 105 226
0 14 -4 34 -10 44 -8 15 -4 20 29 33 50 20 67 81 39 142 -10 22 -8 29 16 54
29 30 30 45 11 123 l-7 27 56 -6 57 -6 42 47 c27 29 51 46 66 46 18 0 22 -4
16 -17 -18 -41 -17 -74 3 -106 13 -22 17 -39 11 -48 -16 -25 -10 -46 24 -86
18 -22 39 -58 46 -80 l13 -40 47 4 c30 4 54 13 70 29 24 22 24 25 13 86 -13
71 -56 141 -88 146 -16 2 -20 9 -16 28 2 13 7 24 11 24 4 0 36 -16 71 -35 36
-19 79 -35 97 -35 62 0 183 -70 183 -106 0 -16 -45 -44 -72 -44 -28 0 -39 -8
-61 -40 -23 -33 -22 -43 9 -79 19 -23 34 -31 58 -31 18 0 54 -6 81 -14 45 -14
49 -14 82 7 33 21 34 24 30 75 -3 39 0 55 10 59 16 6 19 158 3 168 -11 7 -14
45 -3 45 17 0 143 -82 143 -93 0 -23 25 -67 38 -67 7 0 15 -7 19 -15 9 -26 62
-47 98 -41 51 10 65 41 61 134 -3 82 -21 126 -56 137 -24 8 -61 70 -54 90 9
22 19 18 32 -10z m1154 -173 c21 -28 65 -52 96 -52 24 0 31 -5 34 -25 4 -20 1
-25 -15 -25 -20 0 -147 97 -147 112 0 14 18 9 32 -10z m-1175 -8 c-3 -3 -12
-4 -19 -1 -8 3 -5 6 6 6 11 1 17 -2 13 -5z m1047 -731 c82 -77 108 -136 45
-103 -19 11 -125 160 -113 160 4 0 35 -26 68 -57z m-7857 0 c-3 -10 -8 -35
-12 -55 -3 -21 -10 -38 -15 -38 -15 0 -12 97 3 103 23 10 28 7 24 -10z m8054
-268 c63 -68 134 -185 160 -263 12 -35 19 -66 16 -68 -13 -13 -49 25 -58 61
-17 72 -37 102 -78 126 -37 20 -43 30 -70 111 -17 49 -27 88 -23 86 4 -2 28
-25 53 -53z m-7955 -1418 c2 -2 -3 -20 -11 -40 -8 -20 -15 -58 -15 -84 0 -93
90 -139 143 -72 20 26 23 37 17 75 -11 73 12 75 55 4 16 -28 33 -50 37 -50 5
0 56 -36 115 -80 92 -70 111 -80 147 -80 23 0 64 -3 92 -6 l51 -6 54 -92 c31
-54 84 -123 130 -171 45 -48 82 -96 90 -119 9 -25 37 -60 82 -101 66 -60 72
-63 186 -94 l118 -32 71 -72 c66 -68 132 -173 132 -212 0 -8 4 -15 8 -15 4 0
12 -13 18 -28 11 -28 0 -72 -18 -72 -4 0 -8 -11 -8 -25 0 -14 4 -25 8 -25 5 0
14 -10 19 -23 8 -18 28 -28 78 -42 72 -19 84 -33 68 -76 -10 -25 -8 -30 27
-57 l37 -30 41 24 41 24 95 -52 c93 -52 96 -54 96 -89 0 -24 7 -42 23 -57 21
-20 31 -22 93 -16 126 11 347 -60 529 -170 76 -46 125 -66 161 -66 26 0 69
-69 84 -134 11 -49 7 -55 -131 -199 -85 -87 -98 -97 -130 -97 -26 0 -42 -7
-61 -27 -25 -27 -26 -35 -32 -178 -4 -82 -9 -176 -12 -207 -6 -55 -7 -58 -33
-58 -34 0 -68 -35 -77 -77 -6 -29 -11 -32 -66 -43 -35 -7 -86 -9 -123 -5 -57
7 -75 3 -188 -34 -112 -38 -125 -44 -139 -73 -13 -29 -13 -38 0 -89 l16 -56
-37 -45 c-28 -34 -58 -55 -117 -82 l-79 -36 -91 35 c-51 19 -95 35 -100 35 -4
0 -19 -17 -33 -39 l-25 -38 25 -26 26 -26 -39 6 c-30 4 -45 0 -66 -17 -24 -18
-28 -29 -28 -71 0 -30 -4 -49 -11 -49 -14 0 -454 257 -480 280 -9 8 -85 146
-168 307 l-151 291 -70 254 -70 253 -235 230 -235 230 -186 395 -185 395 27
92 27 92 -16 100 c-10 55 -17 106 -17 114 0 8 20 22 44 31 30 12 48 26 59 49
19 37 52 312 44 367 -5 38 -5 38 42 50 54 15 91 45 91 74 0 12 3 32 7 45 6 22
9 23 65 18 33 -3 62 -7 64 -10z m-6745 -1807 c307 -531 559 -970 559 -977 0
-6 4 -13 9 -15 8 -3 1244 -2130 1264 -2178 7 -14 14 -27 18 -30 8 -7 1248
-2147 1263 -2180 6 -14 13 -27 17 -30 8 -7 1248 -2147 1263 -2180 6 -14 13
-27 17 -30 4 -3 134 -225 289 -495 156 -269 292 -498 303 -507 18 -17 148 -18
2430 -18 l2411 0 23 22 23 21 0 2834 0 2833 430 0 430 0 0 -2832 0 -2832 22
-23 21 -23 2413 0 c2283 0 2413 1 2431 18 11 9 76 114 144 232 67 118 126 217
131 218 4 2 8 8 8 14 0 14 1261 2192 1272 2196 4 2 8 8 8 14 0 14 1261 2192
1272 2196 4 2 8 8 8 14 0 14 1261 2192 1272 2196 4 2 8 8 8 14 0 14 1261 2192
1272 2196 4 2 8 9 8 15 0 7 36 73 79 147 l79 135 767 3 c421 1 764 -1 762 -5
-59 -106 -393 -679 -397 -683 -4 -3 -9 -12 -12 -21 -9 -22 -1258 -2183 -1267
-2189 -3 -3 -12 -18 -19 -33 -23 -52 -1245 -2162 -1258 -2173 -8 -6 -14 -16
-14 -23 0 -11 -1257 -2191 -1269 -2201 -4 -3 -11 -16 -18 -30 -18 -41 -1254
-2174 -1263 -2180 -4 -3 -9 -12 -11 -20 -2 -9 -58 -109 -124 -223 l-119 -207
-6636 0 -6635 0 -283 488 c-155 269 -282 493 -282 499 0 6 -4 13 -8 15 -12 4
-1272 2184 -1272 2199 0 7 -6 17 -14 23 -15 12 -1259 2161 -1265 2185 -2 9 -7
18 -11 21 -9 6 -1258 2162 -1268 2189 -3 9 -8 18 -12 21 -12 9 -1270 2190
-1270 2202 0 6 -6 16 -14 22 -7 6 -28 37 -45 69 l-33 57 767 -2 767 -3 559
-965z m7802 -1804 c26 -15 47 -30 47 -33 0 -6 -96 49 -123 71 l-22 18 25 -14
c14 -8 46 -27 73 -42z m117 -72 c0 -2 -13 2 -30 11 -16 9 -30 18 -30 21 0 2
14 -2 30 -11 17 -9 30 -18 30 -21z m50 -30 c0 -2 -9 0 -20 6 -11 6 -20 13 -20
16 0 2 9 0 20 -6 11 -6 20 -13 20 -16z m-6860 -8640 c0 -682 2 -825 13 -821 8
3 181 103 386 222 l373 217 86 -50 c48 -28 222 -129 387 -226 l300 -175 3 830
2 829 200 0 200 0 0 -1175 c0 -723 -4 -1175 -9 -1175 -5 0 -265 149 -578 332
-312 182 -575 333 -584 335 -8 3 -271 -145 -583 -327 -313 -182 -575 -334
-582 -337 -12 -4 -14 177 -14 1171 l0 1176 200 0 200 0 0 -826z m3360 406
c264 -63 516 -270 641 -525 92 -190 92 -187 96 -837 l4 -568 -200 0 -201 0 0
195 0 195 -390 0 -390 0 0 200 0 200 391 0 392 0 -6 148 c-4 110 -10 163 -26
213 -54 172 -212 328 -386 382 -98 30 -253 29 -345 -2 -184 -64 -338 -227
-385 -408 -12 -47 -15 -150 -15 -590 l0 -533 -200 0 -200 0 0 558 c0 618 3
646 69 801 83 196 260 387 453 490 86 46 214 87 313 101 101 13 286 4 385 -20z
m1900 -532 l585 -337 3 449 2 450 200 0 200 0 0 -980 0 -980 -200 0 -200 0 -2
297 -3 298 -575 332 -575 333 -3 -630 -2 -630 -200 0 -200 0 0 979 0 980 193
-112 c105 -61 455 -263 777 -449z m2400 533 c271 -70 516 -272 641 -526 158
-325 120 -735 -95 -1013 -107 -139 -265 -263 -409 -323 -159 -67 -182 -69
-799 -69 l-558 0 0 981 0 980 568 -4 c546 -3 570 -4 652 -26z m2890 -171 l0
-200 -780 0 -780 0 0 -580 0 -580 780 0 780 0 0 -200 0 -200 -980 0 -980 0 0
980 0 980 980 0 980 0 0 -200z m1741 173 c126 -43 243 -136 319 -255 108 -166
117 -402 22 -582 -66 -126 -198 -243 -314 -281 -29 -10 -57 -21 -61 -25 -7 -6
288 -531 425 -757 l20 -33 -234 0 -233 0 -225 390 -225 390 -132 0 -133 0 0
200 0 199 328 3 329 3 37 29 c48 36 74 79 82 134 5 36 2 53 -22 100 -24 47
-38 61 -83 84 l-53 28 -499 0 -499 0 0 -780 0 -780 -200 0 -200 0 0 980 0 981
743 -3 c736 -3 742 -3 808 -25z m2559 -173 l0 -200 -780 0 -780 0 0 -580 0
-580 780 0 780 0 0 -200 0 -200 -980 0 -980 0 0 980 0 980 980 0 980 0 0 -200z
m1741 173 c126 -43 243 -136 319 -255 108 -166 117 -402 22 -582 -66 -126
-198 -243 -314 -281 -29 -10 -57 -21 -61 -25 -7 -6 288 -531 425 -757 l20 -33
-234 0 -233 0 -225 390 -225 390 -132 0 -133 0 0 200 0 199 328 3 329 3 37 29
c48 36 74 79 82 134 5 36 2 53 -22 100 -24 47 -38 61 -83 84 l-53 28 -499 0
-499 0 0 -780 0 -780 -200 0 -200 0 0 980 0 981 743 -3 c736 -3 742 -3 808
-25z m1969 -173 l0 -200 -397 0 c-247 0 -412 -4 -436 -11 -47 -13 -106 -63
-123 -106 -29 -68 -9 -169 42 -214 56 -49 56 -49 511 -49 425 0 508 -5 601
-36 106 -36 227 -133 299 -240 107 -160 120 -401 31 -582 -42 -86 -168 -215
-254 -260 -122 -63 -104 -62 -911 -62 l-733 0 0 200 0 200 705 0 c570 0 712 3
738 14 57 23 117 111 117 171 0 32 -25 90 -52 121 -63 71 -40 68 -578 74
l-485 5 -66 26 c-133 51 -264 170 -323 292 -41 83 -56 152 -56 262 0 182 45
291 175 420 91 91 174 138 283 160 49 10 179 13 490 14 l422 1 0 -200z m-8010
-780 l0 -200 -590 0 -590 0 0 200 0 200 590 0 590 0 0 -200z m4300 0 l0 -200
-590 0 -590 0 0 200 0 200 590 0 590 0 0 -200z"/>
<path d="M22570 33610 l0 -730 374 0 c487 0 565 11 721 102 83 49 216 180 263
260 131 222 131 516 1 734 -77 129 -236 265 -366 314 -115 44 -184 49 -600 50
l-393 0 0 -730z"/>
<path d="M20369 23458 c-36 -13 -78 -19 -127 -19 -69 1 -75 -1 -122 -36 -44
-33 -50 -42 -50 -74 0 -29 7 -43 34 -67 36 -32 199 -92 249 -92 27 0 96 40
145 84 27 24 52 78 52 110 0 40 -36 83 -83 99 -41 14 -48 13 -98 -5z m81 -99
c0 -12 -53 -62 -85 -79 -19 -10 -36 -8 -105 15 -66 22 -79 30 -66 37 10 6 32
7 49 4 31 -5 152 15 164 28 10 10 43 7 43 -5z"/>
<path d="M16065 20713 c-11 -3 -32 -16 -47 -30 -26 -24 -26 -26 -12 -67 14
-40 18 -43 61 -52 42 -8 47 -13 59 -47 7 -21 33 -61 57 -88 41 -46 45 -57 51
-119 8 -83 20 -96 120 -139 66 -30 80 -32 103 -22 14 6 27 10 29 8 8 -8 -19
-67 -30 -67 -7 0 -27 -15 -45 -34 -26 -27 -31 -37 -23 -52 16 -29 51 -58 120
-98 66 -37 127 -47 150 -24 9 9 19 5 41 -16 27 -26 35 -28 75 -23 45 6 45 6
51 -27 6 -28 13 -35 45 -45 22 -6 42 -16 45 -21 9 -14 85 39 85 59 -1 40 -71
91 -127 91 -26 0 -34 3 -26 11 9 9 3 73 -9 84 -23 21 -280 175 -300 180 -22 6
-28 13 -28 34 0 18 -23 60 -62 117 -35 49 -88 136 -118 193 l-55 104 -85 49
c-47 26 -89 47 -95 47 -5 -1 -19 -3 -30 -6z m550 -695 c29 -13 33 -33 9 -42
-30 -12 -52 2 -46 29 5 29 4 28 37 13z"/>
<path d="M16203 20163 c-28 -14 -33 -22 -33 -53 0 -42 12 -61 60 -89 42 -25
61 -26 100 -6 32 17 39 49 20 85 -11 20 -92 80 -107 79 -4 0 -23 -8 -40 -16z"/>
<path d="M23397 23105 c-66 -50 -67 -72 -14 -186 43 -92 46 -96 145 -174 72
-56 134 -119 218 -218 87 -103 121 -136 133 -132 9 4 28 12 44 17 27 10 27 11
27 100 0 49 -4 98 -10 108 -5 10 -47 47 -92 83 -46 35 -125 110 -175 165 -88
95 -93 102 -93 144 0 38 -6 51 -38 86 -50 54 -82 55 -145 7z m73 -95 c0 -5 -4
-10 -10 -10 -5 0 -10 5 -10 10 0 6 5 10 10 10 6 0 10 -4 10 -10z"/>
<path d="M23175 22825 l-40 -12 -9 -74 c-4 -41 -10 -76 -12 -78 -2 -2 -17 2
-33 9 -27 11 -34 9 -62 -11 l-32 -22 6 -101 c4 -56 15 -130 27 -166 11 -36 20
-73 20 -83 0 -22 28 -51 105 -109 51 -38 65 -44 96 -40 31 3 43 13 79 63 38
51 50 61 103 78 68 23 164 91 177 126 11 28 3 89 -16 127 -16 31 -142 105
-219 128 -47 15 -52 20 -82 80 -45 90 -58 100 -108 85z m210 -281 c28 -13 65
-33 83 -44 65 -40 29 -89 -97 -131 -52 -18 -69 -29 -99 -70 -20 -26 -41 -48
-45 -48 -5 -1 -26 11 -47 26 -33 24 -41 38 -59 103 -25 93 -36 160 -26 160 5
0 32 -18 62 -41 l54 -40 39 29 c22 16 38 31 36 33 -2 2 -6 17 -10 32 -7 28 -6
29 26 22 18 -4 56 -17 83 -31z"/>
<path d="M17630 6461 l0 -581 333 0 c365 0 395 4 507 60 75 38 189 145 234
219 58 96 79 172 80 291 0 81 -5 121 -21 175 -54 173 -208 329 -382 387 -62
20 -89 22 -408 26 l-343 4 0 -581z"/>
</g>
</svg>
